# xmcd CD database file
#
# Track frame offsets:
#	150
#	17177
#	39355
#	59817
#	78632
#	96902
#	125782
#	142070
#	160537
#	177135
#	197960
#	217325
#	235135
#	252072
#	270360
#
# Disc length: 3915 seconds
#
# Revision: 0
# Processed by: cddbd v1.5PL3 Copyright (c) Steve Scherf et al.
# Submitted via: CDex 1.50beta10
#
DISCID=dd0f490f
DTITLE=Reason - 05
DYEAR=1900
DGENRE=歌謡曲
TTITLE0=高野　寛/虹の都へ
TTITLE1=オリジナル・ラヴ/月の裏で会いましょう
TTITLE2=森川美穂/心のパーキングゾーン
TTITLE3=桐島かれん/TRAVELING GIRL
TTITLE4=和田加奈子/HEARTでふりむいて
TTITLE5=オフコース/言葉にできない
TTITLE6=佐藤隆/マイ・クラシック
TTITLE7=氷室京介/JEALOUSYを眠らせて
TTITLE8=尾崎亜美/ストップ・モーション
TTITLE9=高野　寛/ベステンダンク
TTITLE10=中原めいこ/GEMINI
TTITLE11=ハイ・ファイ・セット/ラブストーリーはこれから
TTITLE12=COMPLEX/恋をとめないで
TTITLE13=山本達彦/LADY
TTITLE14=山下久美子/Tonight〜星の降る夜に〜
EXTD=
EXTT0=
EXTT1=
EXTT2=
EXTT3=
EXTT4=
EXTT5=
EXTT6=
EXTT7=
EXTT8=
EXTT9=
EXTT10=
EXTT11=
EXTT12=
EXTT13=
EXTT14=
PLAYORDER=
